{
    "patcher": {
        "fileversion": 1,
        "appversion": {
            "major": 9,
            "minor": 1,
            "revision": 2,
            "architecture": "x64",
            "modernui": 1
        },
        "classnamespace": "box",
        "rect": [ 84.0, 131.0, 896.0, 620.0 ],
        "boxes": [
            {
                "box": {
                    "id": "obj-16",
                    "maxclass": "newobj",
                    "numinlets": 2,
                    "numoutlets": 1,
                    "outlettype": [ "multichannelsignal" ],
                    "patching_rect": [ 177.0, 577.0, 60.0, 22.0 ],
                    "text": "mc.*~ 0.4"
                }
            },
            {
                "box": {
                    "id": "obj-4",
                    "maxclass": "newobj",
                    "numinlets": 1,
                    "numoutlets": 1,
                    "outlettype": [ "multichannelsignal" ],
                    "patching_rect": [ 176.0, 615.0, 53.0, 22.0 ],
                    "text": "mc.limi~"
                }
            },
            {
                "box": {
                    "id": "obj-3",
                    "maxclass": "live.scope~",
                    "numinlets": 2,
                    "numoutlets": 1,
                    "outlettype": [ "bang" ],
                    "patching_rect": [ 139.0, -209.0, 696.0, 243.0 ],
                    "range": [ 0.0, 1.0 ],
                    "samples": 13214.0
                }
            },
            {
                "box": {
                    "format": 6,
                    "id": "obj-14",
                    "maxclass": "flonum",
                    "numinlets": 1,
                    "numoutlets": 2,
                    "outlettype": [ "", "bang" ],
                    "parameter_enable": 0,
                    "patching_rect": [ 270.0, 69.0, 50.0, 22.0 ]
                }
            },
            {
                "box": {
                    "id": "obj-11",
                    "maxclass": "newobj",
                    "numinlets": 2,
                    "numoutlets": 1,
                    "outlettype": [ "multichannelsignal" ],
                    "patching_rect": [ 526.0, 430.0, 42.0, 22.0 ],
                    "text": "mc.>~"
                }
            },
            {
                "box": {
                    "bgcolor": [ 1.0, 0.788235, 0.470588, 1.0 ],
                    "fontface": 1,
                    "hint": "",
                    "id": "obj-12",
                    "ignoreclick": 1,
                    "legacytextcolor": 1,
                    "maxclass": "textbutton",
                    "numinlets": 1,
                    "numoutlets": 3,
                    "outlettype": [ "", "", "int" ],
                    "parameter_enable": 0,
                    "patching_rect": [ 768.0, 153.0, 20.0, 20.0 ],
                    "rounded": 60.0,
                    "text": "2",
                    "textcolor": [ 0.34902, 0.34902, 0.34902, 1.0 ]
                }
            },
            {
                "box": {
                    "attr": "usebusymap",
                    "id": "obj-10",
                    "maxclass": "attrui",
                    "numinlets": 1,
                    "numoutlets": 1,
                    "outlettype": [ "" ],
                    "parameter_enable": 0,
                    "patching_rect": [ 499.0, 163.0, 150.0, 22.0 ]
                }
            },
            {
                "box": {
                    "id": "obj-9",
                    "maxclass": "newobj",
                    "numinlets": 2,
                    "numoutlets": 1,
                    "outlettype": [ "signal" ],
                    "patching_rect": [ 412.0, 289.0, 36.0, 22.0 ],
                    "text": "%~ 3"
                }
            },
            {
                "box": {
                    "id": "obj-7",
                    "maxclass": "newobj",
                    "numinlets": 2,
                    "numoutlets": 1,
                    "outlettype": [ "signal" ],
                    "patching_rect": [ 412.0, 249.0, 30.0, 22.0 ],
                    "text": "+=~"
                }
            },
            {
                "box": {
                    "id": "obj-8",
                    "maxclass": "newobj",
                    "numinlets": 2,
                    "numoutlets": 1,
                    "outlettype": [ "int" ],
                    "patching_rect": [ 221.0, 109.0, 43.0, 22.0 ],
                    "text": "* 2600"
                }
            },
            {
                "box": {
                    "id": "obj-5",
                    "maxclass": "toggle",
                    "numinlets": 1,
                    "numoutlets": 1,
                    "outlettype": [ "int" ],
                    "parameter_enable": 0,
                    "patching_rect": [ 221.0, 79.0, 24.0, 24.0 ]
                }
            },
            {
                "box": {
                    "id": "obj-2",
                    "maxclass": "newobj",
                    "numinlets": 0,
                    "numoutlets": 1,
                    "outlettype": [ "" ],
                    "patcher": {
                        "fileversion": 1,
                        "appversion": {
                            "major": 9,
                            "minor": 1,
                            "revision": 2,
                            "architecture": "x64",
                            "modernui": 1
                        },
                        "classnamespace": "box",
                        "rect": [ 59.0, 106.0, 640.0, 480.0 ],
                        "boxes": [
                            {
                                "box": {
                                    "id": "obj-4",
                                    "maxclass": "newobj",
                                    "numinlets": 2,
                                    "numoutlets": 1,
                                    "outlettype": [ "" ],
                                    "patching_rect": [ 50.0, 469.0, 117.0, 22.0 ],
                                    "text": "sprintf set %i% CPU"
                                }
                            },
                            {
                                "box": {
                                    "id": "obj-181",
                                    "maxclass": "newobj",
                                    "numinlets": 2,
                                    "numoutlets": 1,
                                    "outlettype": [ "int" ],
                                    "patching_rect": [ 50.0, 275.0, 29.5, 22.0 ],
                                    "text": "> 0"
                                }
                            },
                            {
                                "box": {
                                    "id": "obj-185",
                                    "maxclass": "newobj",
                                    "numinlets": 2,
                                    "numoutlets": 1,
                                    "outlettype": [ "" ],
                                    "patching_rect": [ 129.0, 423.0, 33.0, 22.0 ],
                                    "text": "gate"
                                }
                            },
                            {
                                "box": {
                                    "id": "obj-186",
                                    "maxclass": "newobj",
                                    "numinlets": 2,
                                    "numoutlets": 1,
                                    "outlettype": [ "" ],
                                    "patching_rect": [ 50.0, 366.0, 33.0, 22.0 ],
                                    "text": "qlim"
                                }
                            },
                            {
                                "box": {
                                    "id": "obj-188",
                                    "maxclass": "newobj",
                                    "numinlets": 1,
                                    "numoutlets": 2,
                                    "outlettype": [ "int", "int" ],
                                    "patching_rect": [ 50.0, 305.0, 54.0, 22.0 ],
                                    "text": "t 0 i"
                                }
                            },
                            {
                                "box": {
                                    "id": "obj-194",
                                    "maxclass": "newobj",
                                    "numinlets": 2,
                                    "numoutlets": 2,
                                    "outlettype": [ "", "int" ],
                                    "patching_rect": [ 143.0, 377.0, 77.0, 22.0 ],
                                    "text": "adstatus cpu"
                                }
                            },
                            {
                                "box": {
                                    "id": "obj-195",
                                    "maxclass": "newobj",
                                    "numinlets": 2,
                                    "numoutlets": 1,
                                    "outlettype": [ "bang" ],
                                    "patching_rect": [ 143.0, 346.0, 64.0, 22.0 ],
                                    "text": "metro 250"
                                }
                            },
                            {
                                "box": {
                                    "id": "obj-35",
                                    "maxclass": "newobj",
                                    "numinlets": 1,
                                    "numoutlets": 4,
                                    "outlettype": [ "int", "float", "int", "int" ],
                                    "patching_rect": [ 80.0, 162.0, 62.0, 22.0 ],
                                    "text": "dspstate~"
                                }
                            },
                            {
                                "box": {
                                    "id": "obj-33",
                                    "maxclass": "newobj",
                                    "numinlets": 2,
                                    "numoutlets": 1,
                                    "outlettype": [ "" ],
                                    "patching_rect": [ 50.0, 196.0, 49.0, 22.0 ],
                                    "text": "pak 0 0"
                                }
                            },
                            {
                                "box": {
                                    "id": "obj-29",
                                    "maxclass": "newobj",
                                    "numinlets": 2,
                                    "numoutlets": 1,
                                    "outlettype": [ "int" ],
                                    "patching_rect": [ 50.0, 232.0, 29.5, 22.0 ],
                                    "text": "+"
                                }
                            },
                            {
                                "box": {
                                    "id": "obj-25",
                                    "maxclass": "newobj",
                                    "numinlets": 2,
                                    "numoutlets": 2,
                                    "outlettype": [ "", "" ],
                                    "patching_rect": [ 50.0, 134.0, 58.0, 22.0 ],
                                    "text": "route set"
                                }
                            },
                            {
                                "box": {
                                    "id": "obj-63",
                                    "maxclass": "newobj",
                                    "numinlets": 2,
                                    "numoutlets": 2,
                                    "outlettype": [ "", "int" ],
                                    "patching_rect": [ 50.0, 100.0, 92.0, 22.0 ],
                                    "text": "adstatus switch"
                                }
                            },
                            {
                                "box": {
                                    "comment": "",
                                    "id": "obj-1",
                                    "index": 1,
                                    "maxclass": "outlet",
                                    "numinlets": 1,
                                    "numoutlets": 0,
                                    "patching_rect": [ 50.0, 551.0, 30.0, 30.0 ]
                                }
                            }
                        ],
                        "lines": [
                            {
                                "patchline": {
                                    "destination": [ "obj-188", 0 ],
                                    "source": [ "obj-181", 0 ]
                                }
                            },
                            {
                                "patchline": {
                                    "destination": [ "obj-4", 0 ],
                                    "source": [ "obj-185", 0 ]
                                }
                            },
                            {
                                "patchline": {
                                    "destination": [ "obj-4", 0 ],
                                    "source": [ "obj-186", 0 ]
                                }
                            },
                            {
                                "patchline": {
                                    "destination": [ "obj-185", 0 ],
                                    "order": 1,
                                    "source": [ "obj-188", 1 ]
                                }
                            },
                            {
                                "patchline": {
                                    "destination": [ "obj-186", 0 ],
                                    "source": [ "obj-188", 0 ]
                                }
                            },
                            {
                                "patchline": {
                                    "destination": [ "obj-195", 0 ],
                                    "midpoints": [ 94.5, 336.413208, 152.5, 336.413208 ],
                                    "order": 0,
                                    "source": [ "obj-188", 1 ]
                                }
                            },
                            {
                                "patchline": {
                                    "destination": [ "obj-185", 1 ],
                                    "source": [ "obj-194", 0 ]
                                }
                            },
                            {
                                "patchline": {
                                    "destination": [ "obj-194", 0 ],
                                    "source": [ "obj-195", 0 ]
                                }
                            },
                            {
                                "patchline": {
                                    "destination": [ "obj-33", 0 ],
                                    "source": [ "obj-25", 0 ]
                                }
                            },
                            {
                                "patchline": {
                                    "destination": [ "obj-181", 0 ],
                                    "source": [ "obj-29", 0 ]
                                }
                            },
                            {
                                "patchline": {
                                    "destination": [ "obj-29", 0 ],
                                    "source": [ "obj-33", 0 ]
                                }
                            },
                            {
                                "patchline": {
                                    "destination": [ "obj-33", 1 ],
                                    "source": [ "obj-35", 0 ]
                                }
                            },
                            {
                                "patchline": {
                                    "destination": [ "obj-1", 0 ],
                                    "source": [ "obj-4", 0 ]
                                }
                            },
                            {
                                "patchline": {
                                    "destination": [ "obj-25", 0 ],
                                    "source": [ "obj-63", 0 ]
                                }
                            }
                        ]
                    },
                    "patching_rect": [ 390.0, 133.0, 64.0, 22.0 ],
                    "text": "p printCpu"
                }
            },
            {
                "box": {
                    "bgcolor": [ 0.294117647058824, 0.113725490196078, 0.815686274509804, 1.0 ],
                    "fontname": "Lato",
                    "id": "obj-275",
                    "maxclass": "comment",
                    "numinlets": 1,
                    "numoutlets": 0,
                    "patching_rect": [ 390.0, 163.0, 99.0, 21.0 ],
                    "presentation": 1,
                    "presentation_rect": [ 700.09375, 89.2890625, 76.0, 21.0 ],
                    "text": "26% CPU",
                    "textcolor": [ 1.0, 1.0, 1.0, 1.0 ],
                    "varname": "exclude[2]"
                }
            },
            {
                "box": {
                    "id": "obj-1",
                    "maxclass": "newobj",
                    "numinlets": 1,
                    "numoutlets": 6,
                    "outlettype": [ "list", "list", "int", "int", "", "int" ],
                    "patching_rect": [ 526.0, 480.0, 248.0, 22.0 ],
                    "text": "mc.noteallocator~ @direct 1 @name #0-map"
                }
            },
            {
                "box": {
                    "id": "obj-70",
                    "maxclass": "message",
                    "numinlets": 2,
                    "numoutlets": 1,
                    "outlettype": [ "" ],
                    "patching_rect": [ 510.0, 525.0, 55.0, 22.0 ],
                    "text": "57 62 69"
                }
            },
            {
                "box": {
                    "bgcolor": [ 1.0, 0.788235, 0.470588, 1.0 ],
                    "fontface": 1,
                    "hint": "",
                    "id": "obj-93",
                    "ignoreclick": 1,
                    "legacytextcolor": 1,
                    "maxclass": "textbutton",
                    "numinlets": 1,
                    "numoutlets": 3,
                    "outlettype": [ "", "", "int" ],
                    "parameter_enable": 0,
                    "patching_rect": [ 323.0, 661.0, 20.0, 20.0 ],
                    "rounded": 60.0,
                    "text": "1",
                    "textcolor": [ 0.34902, 0.34902, 0.34902, 1.0 ]
                }
            },
            {
                "box": {
                    "id": "obj-17",
                    "local": 1,
                    "maxclass": "mc.ezdac~",
                    "numinlets": 1,
                    "numoutlets": 0,
                    "patching_rect": [ 176.0, 661.0, 45.0, 45.0 ]
                }
            },
            {
                "box": {
                    "id": "obj-63",
                    "maxclass": "newobj",
                    "numinlets": 1,
                    "numoutlets": 1,
                    "outlettype": [ "bang" ],
                    "patching_rect": [ 443.0, 480.0, 58.0, 22.0 ],
                    "text": "loadbang"
                }
            },
            {
                "box": {
                    "id": "obj-60",
                    "maxclass": "newobj",
                    "numinlets": 2,
                    "numoutlets": 1,
                    "outlettype": [ "multichannelsignal" ],
                    "patching_rect": [ 176.0, 497.0, 200.0, 22.0 ],
                    "text": "mc.cycle~ @busymapname #0-map"
                }
            },
            {
                "box": {
                    "id": "obj-59",
                    "maxclass": "newobj",
                    "numinlets": 2,
                    "numoutlets": 2,
                    "outlettype": [ "signal", "signal" ],
                    "patching_rect": [ 412.0, 331.0, 77.0, 22.0 ],
                    "text": "index~ notes"
                }
            },
            {
                "box": {
                    "id": "obj-57",
                    "maxclass": "newobj",
                    "numinlets": 1,
                    "numoutlets": 2,
                    "outlettype": [ "signal", "int" ],
                    "patching_rect": [ 221.0, 174.0, 41.0, 22.0 ],
                    "text": "what~"
                }
            },
            {
                "box": {
                    "id": "obj-56",
                    "maxclass": "newobj",
                    "numinlets": 2,
                    "numoutlets": 1,
                    "outlettype": [ "signal" ],
                    "patching_rect": [ 221.0, 136.0, 62.0, 22.0 ],
                    "text": "phasor~ 0"
                }
            },
            {
                "box": {
                    "id": "obj-39",
                    "maxclass": "newobj",
                    "numinlets": 2,
                    "numoutlets": 1,
                    "outlettype": [ "multichannelsignal" ],
                    "patching_rect": [ 176.0, 549.0, 245.0, 22.0 ],
                    "text": "mc.mixdown~ 2 @pans spread @autogain 1"
                }
            },
            {
                "box": {
                    "id": "obj-37",
                    "maxclass": "newobj",
                    "numinlets": 2,
                    "numoutlets": 1,
                    "outlettype": [ "multichannelsignal" ],
                    "patching_rect": [ 176.0, 525.0, 228.0, 22.0 ],
                    "text": "mc.*~ @busymapname #0-map"
                }
            },
            {
                "box": {
                    "id": "obj-35",
                    "maxclass": "newobj",
                    "numinlets": 2,
                    "numoutlets": 1,
                    "outlettype": [ "multichannelsignal" ],
                    "patching_rect": [ 221.0, 421.0, 210.0, 22.0 ],
                    "text": "mc.phasor~ @busymapname #0-map"
                }
            },
            {
                "box": {
                    "id": "obj-32",
                    "maxclass": "message",
                    "numinlets": 2,
                    "numoutlets": 1,
                    "outlettype": [ "" ],
                    "patching_rect": [ 443.0, 525.0, 55.0, 22.0 ],
                    "text": "50 55 62"
                }
            },
            {
                "box": {
                    "id": "obj-30",
                    "maxclass": "newobj",
                    "numinlets": 1,
                    "numoutlets": 1,
                    "outlettype": [ "int" ],
                    "patching_rect": [ 443.0, 557.0, 169.0, 22.0 ],
                    "text": "array.tobuffer notes @resize 1"
                }
            },
            {
                "box": {
                    "id": "obj-29",
                    "maxclass": "newobj",
                    "numinlets": 1,
                    "numoutlets": 2,
                    "outlettype": [ "float", "bang" ],
                    "patching_rect": [ 443.0, 599.0, 79.0, 22.0 ],
                    "text": "buffer~ notes"
                }
            },
            {
                "box": {
                    "id": "obj-6",
                    "maxclass": "newobj",
                    "numinlets": 3,
                    "numoutlets": 5,
                    "outlettype": [ "multichannelsignal", "multichannelsignal", "multichannelsignal", "multichannelsignal", "multichannelsignal" ],
                    "patching_rect": [ 221.0, 373.0, 200.0, 22.0 ],
                    "text": "voice-alligator-audio~ 400 @scale 1"
                }
            },
            {
                "box": {
                    "background": 1,
                    "bubble": 1,
                    "fontname": "Arial",
                    "fontsize": 13.0,
                    "id": "obj-84",
                    "maxclass": "comment",
                    "numinlets": 1,
                    "numoutlets": 0,
                    "patching_rect": [ 223.0, 671.0, 110.0, 25.0 ],
                    "text": "Turn on audio"
                }
            },
            {
                "box": {
                    "background": 1,
                    "bubble": 1,
                    "fontname": "Arial",
                    "fontsize": 13.0,
                    "id": "obj-13",
                    "maxclass": "comment",
                    "numinlets": 1,
                    "numoutlets": 0,
                    "patching_rect": [ 651.0, 161.5, 123.0, 25.0 ],
                    "text": "disable busymap"
                }
            }
        ],
        "lines": [
            {
                "patchline": {
                    "destination": [ "obj-35", 0 ],
                    "order": 0,
                    "source": [ "obj-10", 0 ]
                }
            },
            {
                "patchline": {
                    "destination": [ "obj-37", 0 ],
                    "order": 1,
                    "source": [ "obj-10", 0 ]
                }
            },
            {
                "patchline": {
                    "destination": [ "obj-60", 0 ],
                    "order": 2,
                    "source": [ "obj-10", 0 ]
                }
            },
            {
                "patchline": {
                    "destination": [ "obj-1", 0 ],
                    "source": [ "obj-11", 0 ]
                }
            },
            {
                "patchline": {
                    "destination": [ "obj-56", 0 ],
                    "source": [ "obj-14", 0 ]
                }
            },
            {
                "patchline": {
                    "destination": [ "obj-4", 0 ],
                    "source": [ "obj-16", 0 ]
                }
            },
            {
                "patchline": {
                    "destination": [ "obj-275", 0 ],
                    "source": [ "obj-2", 0 ]
                }
            },
            {
                "patchline": {
                    "destination": [ "obj-30", 0 ],
                    "source": [ "obj-32", 0 ]
                }
            },
            {
                "patchline": {
                    "destination": [ "obj-60", 1 ],
                    "source": [ "obj-35", 0 ]
                }
            },
            {
                "patchline": {
                    "destination": [ "obj-39", 0 ],
                    "source": [ "obj-37", 0 ]
                }
            },
            {
                "patchline": {
                    "destination": [ "obj-16", 0 ],
                    "source": [ "obj-39", 0 ]
                }
            },
            {
                "patchline": {
                    "destination": [ "obj-17", 0 ],
                    "source": [ "obj-4", 0 ]
                }
            },
            {
                "patchline": {
                    "destination": [ "obj-8", 0 ],
                    "source": [ "obj-5", 0 ]
                }
            },
            {
                "patchline": {
                    "destination": [ "obj-57", 0 ],
                    "source": [ "obj-56", 0 ]
                }
            },
            {
                "patchline": {
                    "destination": [ "obj-6", 0 ],
                    "order": 1,
                    "source": [ "obj-57", 0 ]
                }
            },
            {
                "patchline": {
                    "destination": [ "obj-7", 0 ],
                    "order": 0,
                    "source": [ "obj-57", 0 ]
                }
            },
            {
                "patchline": {
                    "destination": [ "obj-6", 1 ],
                    "source": [ "obj-59", 0 ]
                }
            },
            {
                "patchline": {
                    "destination": [ "obj-11", 0 ],
                    "order": 0,
                    "source": [ "obj-6", 0 ]
                }
            },
            {
                "patchline": {
                    "destination": [ "obj-3", 0 ],
                    "order": 1,
                    "source": [ "obj-6", 1 ]
                }
            },
            {
                "patchline": {
                    "destination": [ "obj-35", 1 ],
                    "source": [ "obj-6", 2 ]
                }
            },
            {
                "patchline": {
                    "destination": [ "obj-35", 0 ],
                    "order": 1,
                    "source": [ "obj-6", 0 ]
                }
            },
            {
                "patchline": {
                    "destination": [ "obj-37", 1 ],
                    "order": 0,
                    "source": [ "obj-6", 1 ]
                }
            },
            {
                "patchline": {
                    "destination": [ "obj-37", 0 ],
                    "source": [ "obj-60", 0 ]
                }
            },
            {
                "patchline": {
                    "destination": [ "obj-32", 0 ],
                    "source": [ "obj-63", 0 ]
                }
            },
            {
                "patchline": {
                    "destination": [ "obj-9", 0 ],
                    "source": [ "obj-7", 0 ]
                }
            },
            {
                "patchline": {
                    "destination": [ "obj-30", 0 ],
                    "source": [ "obj-70", 0 ]
                }
            },
            {
                "patchline": {
                    "destination": [ "obj-56", 0 ],
                    "source": [ "obj-8", 0 ]
                }
            },
            {
                "patchline": {
                    "destination": [ "obj-59", 0 ],
                    "source": [ "obj-9", 0 ]
                }
            }
        ],
        "autosave": 0
    }
}