{
    "patcher": {
        "fileversion": 1,
        "appversion": {
            "major": 9,
            "minor": 1,
            "revision": 2,
            "architecture": "x64",
            "modernui": 1
        },
        "classnamespace": "box",
        "rect": [ 34.0, 87.0, 1212.0, 679.0 ],
        "boxes": [
            {
                "box": {
                    "format": 6,
                    "id": "obj-70",
                    "maxclass": "flonum",
                    "numinlets": 1,
                    "numoutlets": 2,
                    "outlettype": [ "", "bang" ],
                    "parameter_enable": 0,
                    "patching_rect": [ 232.0, -7.0, 50.0, 22.0 ]
                }
            },
            {
                "box": {
                    "id": "obj-68",
                    "maxclass": "message",
                    "numinlets": 2,
                    "numoutlets": 1,
                    "outlettype": [ "" ],
                    "patching_rect": [ 829.0, 203.0, 32.0, 22.0 ],
                    "text": "print"
                }
            },
            {
                "box": {
                    "id": "obj-58",
                    "maxclass": "message",
                    "numinlets": 2,
                    "numoutlets": 1,
                    "outlettype": [ "" ],
                    "patching_rect": [ 296.0, 225.0, 35.0, 22.0 ],
                    "text": "set 2"
                }
            },
            {
                "box": {
                    "id": "obj-66",
                    "maxclass": "newobj",
                    "numinlets": 0,
                    "numoutlets": 0,
                    "patching_rect": [ 869.0, 81.0, 28.0, 22.0 ],
                    "text": "mc."
                }
            },
            {
                "box": {
                    "fontface": 0,
                    "fontname": "Arial",
                    "fontsize": 12.0,
                    "id": "obj-65",
                    "maxclass": "mc.number~",
                    "mode": 2,
                    "numinlets": 2,
                    "numoutlets": 3,
                    "outlettype": [ "multichannelsignal", "float", "int" ],
                    "patching_rect": [ 468.5, 345.0, 98.0, 34.0 ],
                    "sig": [ 0.0, 0.0, 0.0, 0.0 ]
                }
            },
            {
                "box": {
                    "fontface": 0,
                    "fontname": "Arial",
                    "fontsize": 12.0,
                    "id": "obj-64",
                    "maxclass": "mc.number~",
                    "mode": 2,
                    "numinlets": 2,
                    "numoutlets": 3,
                    "outlettype": [ "multichannelsignal", "float", "int" ],
                    "patching_rect": [ 550.0, 297.0, 98.0, 34.0 ],
                    "sig": [ 0.0, 0.0, 0.0, 0.0 ]
                }
            },
            {
                "box": {
                    "activebgcolor": [ 0.156862745098039, 0.156862745098039, 0.156862745098039, 0.0 ],
                    "activelinecolor": [ 1.0, 0.0, 0.0, 1.0 ],
                    "id": "obj-59",
                    "linecolor": [ 0.090196078431373, 0.545098039215686, 0.0, 1.0 ],
                    "maxclass": "live.scope~",
                    "numinlets": 2,
                    "numoutlets": 1,
                    "outlettype": [ "bang" ],
                    "patching_rect": [ 1071.0, 582.0, 217.0, 111.0 ]
                }
            },
            {
                "box": {
                    "activebgcolor": [ 0.156862745098039, 0.156862745098039, 0.156862745098039, 0.0 ],
                    "activelinecolor": [ 1.0, 0.0, 0.0, 1.0 ],
                    "id": "obj-60",
                    "linecolor": [ 0.090196078431373, 0.545098039215686, 0.0, 1.0 ],
                    "maxclass": "live.scope~",
                    "numinlets": 2,
                    "numoutlets": 1,
                    "outlettype": [ "bang" ],
                    "patching_rect": [ 1042.0, 462.0, 217.0, 111.0 ]
                }
            },
            {
                "box": {
                    "activebgcolor": [ 0.156862745098039, 0.156862745098039, 0.156862745098039, 0.0 ],
                    "activelinecolor": [ 1.0, 0.0, 0.0, 1.0 ],
                    "id": "obj-61",
                    "linecolor": [ 0.090196078431373, 0.545098039215686, 0.0, 1.0 ],
                    "maxclass": "live.scope~",
                    "numinlets": 2,
                    "numoutlets": 1,
                    "outlettype": [ "bang" ],
                    "patching_rect": [ 815.0, 582.0, 217.0, 111.0 ]
                }
            },
            {
                "box": {
                    "activebgcolor": [ 0.156862745098039, 0.156862745098039, 0.156862745098039, 0.0 ],
                    "activelinecolor": [ 1.0, 0.0, 0.0, 1.0 ],
                    "id": "obj-62",
                    "linecolor": [ 0.090196078431373, 0.545098039215686, 0.0, 1.0 ],
                    "maxclass": "live.scope~",
                    "numinlets": 2,
                    "numoutlets": 1,
                    "outlettype": [ "bang" ],
                    "patching_rect": [ 785.0, 462.0, 217.0, 111.0 ]
                }
            },
            {
                "box": {
                    "id": "obj-63",
                    "maxclass": "newobj",
                    "numinlets": 1,
                    "numoutlets": 4,
                    "outlettype": [ "signal", "signal", "signal", "signal" ],
                    "patching_rect": [ 1042.0, 402.0, 107.5, 22.0 ],
                    "text": "mc.unpack~ 4"
                }
            },
            {
                "box": {
                    "id": "obj-53",
                    "maxclass": "message",
                    "numinlets": 2,
                    "numoutlets": 1,
                    "outlettype": [ "" ],
                    "patching_rect": [ 1000.0, 371.0, 50.0, 22.0 ],
                    "text": "voice 4"
                }
            },
            {
                "box": {
                    "id": "obj-40",
                    "maxclass": "message",
                    "numinlets": 2,
                    "numoutlets": 1,
                    "outlettype": [ "" ],
                    "patching_rect": [ 876.0, 379.0, 50.0, 22.0 ],
                    "text": "0."
                }
            },
            {
                "box": {
                    "id": "obj-29",
                    "maxclass": "newobj",
                    "numinlets": 2,
                    "numoutlets": 2,
                    "outlettype": [ "", "" ],
                    "patching_rect": [ 905.0, 303.0, 150.0, 22.0 ],
                    "text": "mc.snapshot~ 5 @active 1"
                }
            },
            {
                "box": {
                    "fontface": 0,
                    "fontname": "Arial",
                    "fontsize": 12.0,
                    "id": "obj-38",
                    "maxclass": "mc.number~",
                    "mode": 2,
                    "numinlets": 2,
                    "numoutlets": 3,
                    "outlettype": [ "multichannelsignal", "float", "int" ],
                    "patching_rect": [ 650.0, 339.0, 98.0, 34.0 ],
                    "sig": [ 0.0, 0.0, 0.0, 0.0 ]
                }
            },
            {
                "box": {
                    "id": "obj-37",
                    "maxclass": "newobj",
                    "numinlets": 1,
                    "numoutlets": 1,
                    "outlettype": [ "" ],
                    "patching_rect": [ 170.0, 203.0, 59.0, 22.0 ],
                    "text": "append 1"
                }
            },
            {
                "box": {
                    "fontface": 0,
                    "fontname": "Arial",
                    "fontsize": 12.0,
                    "id": "obj-33",
                    "maxclass": "mc.number~",
                    "mode": 2,
                    "numinlets": 2,
                    "numoutlets": 3,
                    "outlettype": [ "multichannelsignal", "float", "int" ],
                    "patching_rect": [ 728.0, 353.0, 98.0, 34.0 ],
                    "sig": [ 0.0, 0.0, 0.0, 0.0 ]
                }
            },
            {
                "box": {
                    "id": "obj-36",
                    "maxclass": "message",
                    "numinlets": 2,
                    "numoutlets": 1,
                    "outlettype": [ "" ],
                    "patching_rect": [ 90.0, 390.0, 29.5, 22.0 ],
                    "text": "end"
                }
            },
            {
                "box": {
                    "id": "obj-32",
                    "maxclass": "kslider",
                    "mode": 1,
                    "numinlets": 2,
                    "numoutlets": 2,
                    "offset": 48,
                    "outlettype": [ "int", "int" ],
                    "parameter_enable": 0,
                    "patching_rect": [ 243.0, 44.0, 84.0, 53.0 ],
                    "range": 12
                }
            },
            {
                "box": {
                    "id": "obj-31",
                    "maxclass": "message",
                    "numinlets": 2,
                    "numoutlets": 1,
                    "outlettype": [ "" ],
                    "patching_rect": [ 41.0, 266.0, 70.0, 22.0 ],
                    "text": "end"
                }
            },
            {
                "box": {
                    "id": "obj-30",
                    "maxclass": "message",
                    "numinlets": 2,
                    "numoutlets": 1,
                    "outlettype": [ "" ],
                    "patching_rect": [ 81.0, 266.0, 52.0, 22.0 ],
                    "text": "debug 1"
                }
            },
            {
                "box": {
                    "id": "obj-20",
                    "maxclass": "newobj",
                    "numinlets": 6,
                    "numoutlets": 1,
                    "outlettype": [ "multichannelsignal" ],
                    "patching_rect": [ 327.0, 359.0, 120.0, 22.0 ],
                    "text": "mc.scale~ 48 68 -1 1"
                }
            },
            {
                "box": {
                    "id": "obj-19",
                    "maxclass": "newobj",
                    "numinlets": 1,
                    "numoutlets": 1,
                    "outlettype": [ "multichannelsignal" ],
                    "patching_rect": [ 327.0, 310.0, 58.0, 22.0 ],
                    "text": "mc.ftom~"
                }
            },
            {
                "box": {
                    "activebgcolor": [ 0.156862745098039, 0.156862745098039, 0.156862745098039, 0.0 ],
                    "activelinecolor": [ 1.0, 0.0, 0.0, 1.0 ],
                    "id": "obj-3",
                    "linecolor": [ 0.090196078431373, 0.545098039215686, 0.0, 1.0 ],
                    "maxclass": "live.scope~",
                    "numinlets": 2,
                    "numoutlets": 1,
                    "outlettype": [ "bang" ],
                    "patching_rect": [ 613.0, 566.0, 217.0, 111.0 ]
                }
            },
            {
                "box": {
                    "activebgcolor": [ 0.156862745098039, 0.156862745098039, 0.156862745098039, 0.0 ],
                    "activelinecolor": [ 1.0, 0.0, 0.0, 1.0 ],
                    "id": "obj-4",
                    "linecolor": [ 0.090196078431373, 0.545098039215686, 0.0, 1.0 ],
                    "maxclass": "live.scope~",
                    "numinlets": 2,
                    "numoutlets": 1,
                    "outlettype": [ "bang" ],
                    "patching_rect": [ 584.0, 446.0, 217.0, 111.0 ]
                }
            },
            {
                "box": {
                    "activebgcolor": [ 0.156862745098039, 0.156862745098039, 0.156862745098039, 0.0 ],
                    "activelinecolor": [ 1.0, 0.0, 0.0, 1.0 ],
                    "id": "obj-5",
                    "linecolor": [ 0.090196078431373, 0.545098039215686, 0.0, 1.0 ],
                    "maxclass": "live.scope~",
                    "numinlets": 2,
                    "numoutlets": 1,
                    "outlettype": [ "bang" ],
                    "patching_rect": [ 357.0, 566.0, 217.0, 111.0 ]
                }
            },
            {
                "box": {
                    "activebgcolor": [ 0.156862745098039, 0.156862745098039, 0.156862745098039, 0.0 ],
                    "activelinecolor": [ 1.0, 0.0, 0.0, 1.0 ],
                    "id": "obj-6",
                    "linecolor": [ 0.090196078431373, 0.545098039215686, 0.0, 1.0 ],
                    "maxclass": "live.scope~",
                    "numinlets": 2,
                    "numoutlets": 1,
                    "outlettype": [ "bang" ],
                    "patching_rect": [ 327.0, 446.0, 217.0, 111.0 ]
                }
            },
            {
                "box": {
                    "id": "obj-11",
                    "maxclass": "newobj",
                    "numinlets": 1,
                    "numoutlets": 4,
                    "outlettype": [ "signal", "signal", "signal", "signal" ],
                    "patching_rect": [ 327.0, 390.0, 107.5, 22.0 ],
                    "text": "mc.unpack~ 4"
                }
            },
            {
                "box": {
                    "attr": "debug",
                    "id": "obj-57",
                    "maxclass": "attrui",
                    "numinlets": 1,
                    "numoutlets": 1,
                    "outlettype": [ "" ],
                    "parameter_enable": 0,
                    "patching_rect": [ 9.0, 203.0, 150.0, 22.0 ]
                }
            },
            {
                "box": {
                    "attr": "glide_retrigger",
                    "id": "obj-56",
                    "maxclass": "attrui",
                    "numinlets": 1,
                    "numoutlets": 1,
                    "outlettype": [ "" ],
                    "parameter_enable": 0,
                    "patching_rect": [ 9.0, 167.0, 150.0, 22.0 ]
                }
            },
            {
                "box": {
                    "fontface": 0,
                    "fontname": "Arial",
                    "fontsize": 12.0,
                    "id": "obj-55",
                    "maxclass": "mc.number~",
                    "mode": 2,
                    "numinlets": 2,
                    "numoutlets": 3,
                    "outlettype": [ "multichannelsignal", "float", "int" ],
                    "patching_rect": [ 35.0, 318.0, 98.0, 34.0 ],
                    "sig": [ 0.0, 0.0, 0.0, 0.0 ]
                }
            },
            {
                "box": {
                    "id": "obj-54",
                    "maxclass": "number",
                    "numinlets": 1,
                    "numoutlets": 2,
                    "outlettype": [ "", "bang" ],
                    "parameter_enable": 0,
                    "patching_rect": [ 215.0, 103.0, 50.0, 22.0 ]
                }
            },
            {
                "box": {
                    "attr": "mono",
                    "id": "obj-52",
                    "maxclass": "attrui",
                    "numinlets": 1,
                    "numoutlets": 1,
                    "outlettype": [ "" ],
                    "parameter_enable": 0,
                    "patching_rect": [ 9.0, 75.0, 150.0, 22.0 ]
                }
            },
            {
                "box": {
                    "attr": "glidetime_curvature",
                    "id": "obj-51",
                    "maxclass": "attrui",
                    "numinlets": 1,
                    "numoutlets": 1,
                    "outlettype": [ "" ],
                    "parameter_enable": 0,
                    "patching_rect": [ 9.0, 136.0, 150.0, 22.0 ]
                }
            },
            {
                "box": {
                    "attr": "glidetime",
                    "id": "obj-50",
                    "maxclass": "attrui",
                    "numinlets": 1,
                    "numoutlets": 1,
                    "outlettype": [ "" ],
                    "parameter_enable": 0,
                    "patching_rect": [ 9.0, 105.0, 150.0, 22.0 ]
                }
            },
            {
                "box": {
                    "activebgcolor": [ 0.156862745098039, 0.156862745098039, 0.156862745098039, 0.0 ],
                    "activelinecolor": [ 0.419607843137255, 0.403921568627451, 0.870588235294118, 1.0 ],
                    "id": "obj-44",
                    "linecolor": [ 0.031372549019608, 0.156862745098039, 0.686274509803922, 1.0 ],
                    "maxclass": "live.scope~",
                    "numinlets": 2,
                    "numoutlets": 1,
                    "outlettype": [ "bang" ],
                    "patching_rect": [ 613.0, 566.0, 217.0, 111.0 ],
                    "range": [ -0.1, 1.1 ]
                }
            },
            {
                "box": {
                    "activebgcolor": [ 0.156862745098039, 0.156862745098039, 0.156862745098039, 0.0 ],
                    "activelinecolor": [ 0.419607843137255, 0.403921568627451, 0.870588235294118, 1.0 ],
                    "id": "obj-45",
                    "linecolor": [ 0.031372549019608, 0.156862745098039, 0.686274509803922, 1.0 ],
                    "maxclass": "live.scope~",
                    "numinlets": 2,
                    "numoutlets": 1,
                    "outlettype": [ "bang" ],
                    "patching_rect": [ 584.0, 446.0, 217.0, 111.0 ],
                    "range": [ -0.1, 1.1 ]
                }
            },
            {
                "box": {
                    "activebgcolor": [ 0.156862745098039, 0.156862745098039, 0.156862745098039, 0.0 ],
                    "activelinecolor": [ 0.419607843137255, 0.403921568627451, 0.870588235294118, 1.0 ],
                    "id": "obj-46",
                    "linecolor": [ 0.031372549019608, 0.156862745098039, 0.686274509803922, 1.0 ],
                    "maxclass": "live.scope~",
                    "numinlets": 2,
                    "numoutlets": 1,
                    "outlettype": [ "bang" ],
                    "patching_rect": [ 357.0, 566.0, 217.0, 111.0 ],
                    "range": [ -0.1, 1.1 ]
                }
            },
            {
                "box": {
                    "activebgcolor": [ 0.156862745098039, 0.156862745098039, 0.156862745098039, 0.0 ],
                    "activelinecolor": [ 0.419607843137255, 0.403921568627451, 0.870588235294118, 1.0 ],
                    "id": "obj-47",
                    "linecolor": [ 0.031372549019608, 0.156862745098039, 0.686274509803922, 1.0 ],
                    "maxclass": "live.scope~",
                    "numinlets": 2,
                    "numoutlets": 1,
                    "outlettype": [ "bang" ],
                    "patching_rect": [ 327.0, 446.0, 217.0, 111.0 ],
                    "range": [ -0.1, 1.1 ]
                }
            },
            {
                "box": {
                    "id": "obj-48",
                    "maxclass": "newobj",
                    "numinlets": 1,
                    "numoutlets": 4,
                    "outlettype": [ "signal", "signal", "signal", "signal" ],
                    "patching_rect": [ 594.0, 390.0, 107.5, 22.0 ],
                    "text": "mc.unpack~ 4"
                }
            },
            {
                "box": {
                    "id": "obj-42",
                    "maxclass": "live.scope~",
                    "numinlets": 2,
                    "numoutlets": 1,
                    "outlettype": [ "bang" ],
                    "patching_rect": [ 613.0, 566.0, 217.0, 111.0 ],
                    "range": [ -0.1, 1.1 ]
                }
            },
            {
                "box": {
                    "id": "obj-43",
                    "maxclass": "live.scope~",
                    "numinlets": 2,
                    "numoutlets": 1,
                    "outlettype": [ "bang" ],
                    "patching_rect": [ 584.0, 446.0, 217.0, 111.0 ],
                    "range": [ -0.1, 1.1 ]
                }
            },
            {
                "box": {
                    "id": "obj-41",
                    "maxclass": "live.scope~",
                    "numinlets": 2,
                    "numoutlets": 1,
                    "outlettype": [ "bang" ],
                    "patching_rect": [ 357.0, 566.0, 217.0, 111.0 ],
                    "range": [ -0.1, 1.1 ]
                }
            },
            {
                "box": {
                    "id": "obj-35",
                    "maxclass": "live.scope~",
                    "numinlets": 2,
                    "numoutlets": 1,
                    "outlettype": [ "bang" ],
                    "patching_rect": [ 327.0, 446.0, 217.0, 111.0 ],
                    "range": [ -0.1, 1.1 ]
                }
            },
            {
                "box": {
                    "id": "obj-34",
                    "maxclass": "newobj",
                    "numinlets": 1,
                    "numoutlets": 4,
                    "outlettype": [ "signal", "signal", "signal", "signal" ],
                    "patching_rect": [ 463.75, 390.0, 107.5, 22.0 ],
                    "text": "mc.unpack~ 4"
                }
            },
            {
                "box": {
                    "hidden": 1,
                    "id": "obj-26",
                    "maxclass": "newobj",
                    "numinlets": 1,
                    "numoutlets": 1,
                    "outlettype": [ "" ],
                    "patching_rect": [ 746.0, 241.0, 131.0, 22.0 ],
                    "text": "prepend release_curve"
                }
            },
            {
                "box": {
                    "hidden": 1,
                    "id": "obj-27",
                    "maxclass": "newobj",
                    "numinlets": 1,
                    "numoutlets": 1,
                    "outlettype": [ "" ],
                    "patching_rect": [ 700.0, 212.0, 124.0, 22.0 ],
                    "text": "prepend decay_curve"
                }
            },
            {
                "box": {
                    "hidden": 1,
                    "id": "obj-28",
                    "maxclass": "newobj",
                    "numinlets": 1,
                    "numoutlets": 1,
                    "outlettype": [ "" ],
                    "patching_rect": [ 654.0, 184.0, 124.0, 22.0 ],
                    "text": "prepend attack_curve"
                }
            },
            {
                "box": {
                    "hidden": 1,
                    "id": "obj-25",
                    "maxclass": "newobj",
                    "numinlets": 1,
                    "numoutlets": 1,
                    "outlettype": [ "" ],
                    "patching_rect": [ 531.0, 217.0, 95.0, 22.0 ],
                    "text": "prepend release"
                }
            },
            {
                "box": {
                    "hidden": 1,
                    "id": "obj-24",
                    "maxclass": "newobj",
                    "numinlets": 1,
                    "numoutlets": 1,
                    "outlettype": [ "" ],
                    "patching_rect": [ 424.0, 241.0, 125.0, 22.0 ],
                    "text": "prepend sustain_level"
                }
            },
            {
                "box": {
                    "hidden": 1,
                    "id": "obj-23",
                    "maxclass": "newobj",
                    "numinlets": 1,
                    "numoutlets": 1,
                    "outlettype": [ "" ],
                    "patching_rect": [ 379.0, 212.0, 88.0, 22.0 ],
                    "text": "prepend decay"
                }
            },
            {
                "box": {
                    "hidden": 1,
                    "id": "obj-22",
                    "maxclass": "newobj",
                    "numinlets": 1,
                    "numoutlets": 1,
                    "outlettype": [ "" ],
                    "patching_rect": [ 333.0, 184.0, 88.0, 22.0 ],
                    "text": "prepend attack"
                }
            },
            {
                "box": {
                    "attack_time": 39.57471621501894,
                    "decay_slope": 0.8629130966952265,
                    "decay_time": 69.61400460004651,
                    "enable_final": 0,
                    "enable_initial": 0,
                    "enable_peak": 0,
                    "id": "obj-21",
                    "maxclass": "live.adsrui",
                    "numinlets": 10,
                    "numoutlets": 10,
                    "outlettype": [ "", "", "", "", "", "", "", "", "", "" ],
                    "patching_rect": [ 333.0, 44.0, 432.0, 128.0 ],
                    "release_slope": 0.6864406779661153,
                    "release_time": 1773.8530910423165,
                    "sustain": 0.0
                }
            },
            {
                "box": {
                    "id": "obj-18",
                    "maxclass": "mc.ezdac~",
                    "numinlets": 1,
                    "numoutlets": 0,
                    "patching_rect": [ 169.0, 587.0, 45.0, 45.0 ]
                }
            },
            {
                "box": {
                    "id": "obj-17",
                    "lastchannelcount": 2,
                    "maxclass": "mc.live.gain~",
                    "numinlets": 1,
                    "numoutlets": 4,
                    "outlettype": [ "multichannelsignal", "", "float", "list" ],
                    "parameter_enable": 1,
                    "patching_rect": [ 169.0, 440.0, 48.0, 136.0 ],
                    "saved_attribute_attributes": {
                        "valueof": {
                            "parameter_longname": "mc.live.gain~",
                            "parameter_mmax": 6.0,
                            "parameter_mmin": -70.0,
                            "parameter_modmode": 3,
                            "parameter_shortname": "mc.live.gain~",
                            "parameter_type": 0,
                            "parameter_unitstyle": 4
                        }
                    },
                    "varname": "mc.live.gain~"
                }
            },
            {
                "box": {
                    "id": "obj-16",
                    "maxclass": "newobj",
                    "numinlets": 1,
                    "numoutlets": 1,
                    "outlettype": [ "multichannelsignal" ],
                    "patching_rect": [ 169.0, 411.0, 55.0, 22.0 ],
                    "text": "mc.dup~"
                }
            },
            {
                "box": {
                    "id": "obj-15",
                    "maxclass": "newobj",
                    "numinlets": 2,
                    "numoutlets": 1,
                    "outlettype": [ "multichannelsignal" ],
                    "patching_rect": [ 169.0, 382.0, 92.0, 22.0 ],
                    "text": "mc.mixdown~ 1"
                }
            },
            {
                "box": {
                    "id": "obj-14",
                    "maxclass": "newobj",
                    "numinlets": 2,
                    "numoutlets": 1,
                    "outlettype": [ "multichannelsignal" ],
                    "patching_rect": [ 169.0, 345.0, 53.25, 22.0 ],
                    "text": "mc.*~"
                }
            },
            {
                "box": {
                    "id": "obj-13",
                    "maxclass": "newobj",
                    "numinlets": 2,
                    "numoutlets": 1,
                    "outlettype": [ "multichannelsignal" ],
                    "patching_rect": [ 169.0, 303.0, 62.0, 22.0 ],
                    "text": "mc.cycle~"
                }
            },
            {
                "box": {
                    "id": "obj-12",
                    "maxclass": "toggle",
                    "numinlets": 1,
                    "numoutlets": 1,
                    "outlettype": [ "int" ],
                    "parameter_enable": 0,
                    "patching_rect": [ 169.0, 7.0, 24.0, 24.0 ]
                }
            },
            {
                "box": {
                    "id": "obj-10",
                    "maxclass": "newobj",
                    "numinlets": 2,
                    "numoutlets": 1,
                    "outlettype": [ "bang" ],
                    "patching_rect": [ 169.0, 47.0, 63.0, 22.0 ],
                    "text": "metro 666"
                }
            },
            {
                "box": {
                    "id": "obj-9",
                    "maxclass": "newobj",
                    "numinlets": 2,
                    "numoutlets": 1,
                    "outlettype": [ "" ],
                    "patching_rect": [ 170.0, 178.0, 108.0, 22.0 ],
                    "text": "pack i i"
                }
            },
            {
                "box": {
                    "id": "obj-8",
                    "maxclass": "newobj",
                    "numinlets": 3,
                    "numoutlets": 2,
                    "outlettype": [ "float", "float" ],
                    "patching_rect": [ 170.0, 147.0, 108.0, 22.0 ],
                    "text": "makenote 60 1000"
                }
            },
            {
                "box": {
                    "id": "obj-7",
                    "maxclass": "newobj",
                    "numinlets": 2,
                    "numoutlets": 1,
                    "outlettype": [ "int" ],
                    "patching_rect": [ 169.0, 111.0, 32.0, 22.0 ],
                    "text": "+ 48"
                }
            },
            {
                "box": {
                    "id": "obj-2",
                    "maxclass": "newobj",
                    "numinlets": 3,
                    "numoutlets": 1,
                    "outlettype": [ "" ],
                    "patching_rect": [ 169.0, 81.0, 65.0, 22.0 ],
                    "text": "drunk 20 8"
                }
            },
            {
                "box": {
                    "id": "obj-1",
                    "maxclass": "newobj",
                    "numinlets": 1,
                    "numoutlets": 10,
                    "outlettype": [ "multichannelsignal", "multichannelsignal", "multichannelsignal", "multichannelsignal", "multichannelsignal", "multichannelsignal", "multichannelsignal", "multichannelsignal", "multichannelsignal", "" ],
                    "patching_rect": [ 170.0, 270.0, 647.0, 22.0 ],
                    "text": "voice-alligator~ 4 @mono 1 @glide_retrigger 1"
                }
            }
        ],
        "lines": [
            {
                "patchline": {
                    "destination": [ "obj-13", 0 ],
                    "order": 1,
                    "source": [ "obj-1", 0 ]
                }
            },
            {
                "patchline": {
                    "destination": [ "obj-14", 1 ],
                    "order": 1,
                    "source": [ "obj-1", 1 ]
                }
            },
            {
                "patchline": {
                    "destination": [ "obj-19", 0 ],
                    "order": 0,
                    "source": [ "obj-1", 0 ]
                }
            },
            {
                "patchline": {
                    "destination": [ "obj-29", 0 ],
                    "order": 1,
                    "source": [ "obj-1", 8 ]
                }
            },
            {
                "patchline": {
                    "destination": [ "obj-33", 0 ],
                    "order": 2,
                    "source": [ "obj-1", 8 ]
                }
            },
            {
                "patchline": {
                    "destination": [ "obj-34", 0 ],
                    "order": 0,
                    "source": [ "obj-1", 1 ]
                }
            },
            {
                "patchline": {
                    "destination": [ "obj-38", 0 ],
                    "source": [ "obj-1", 7 ]
                }
            },
            {
                "patchline": {
                    "destination": [ "obj-48", 0 ],
                    "source": [ "obj-1", 2 ]
                }
            },
            {
                "patchline": {
                    "destination": [ "obj-55", 0 ],
                    "order": 2,
                    "source": [ "obj-1", 0 ]
                }
            },
            {
                "patchline": {
                    "destination": [ "obj-63", 0 ],
                    "order": 0,
                    "source": [ "obj-1", 8 ]
                }
            },
            {
                "patchline": {
                    "destination": [ "obj-64", 0 ],
                    "source": [ "obj-1", 6 ]
                }
            },
            {
                "patchline": {
                    "destination": [ "obj-65", 0 ],
                    "source": [ "obj-1", 5 ]
                }
            },
            {
                "patchline": {
                    "destination": [ "obj-2", 0 ],
                    "source": [ "obj-10", 0 ]
                }
            },
            {
                "patchline": {
                    "destination": [ "obj-3", 0 ],
                    "midpoints": [ 425.0, 489.0, 622.5, 489.0 ],
                    "source": [ "obj-11", 3 ]
                }
            },
            {
                "patchline": {
                    "destination": [ "obj-4", 0 ],
                    "midpoints": [ 395.5, 429.0, 593.5, 429.0 ],
                    "source": [ "obj-11", 2 ]
                }
            },
            {
                "patchline": {
                    "destination": [ "obj-5", 0 ],
                    "midpoints": [ 366.0, 489.0, 366.5, 489.0 ],
                    "source": [ "obj-11", 1 ]
                }
            },
            {
                "patchline": {
                    "destination": [ "obj-6", 0 ],
                    "midpoints": [ 336.5, 429.0, 336.5, 429.0 ],
                    "source": [ "obj-11", 0 ]
                }
            },
            {
                "patchline": {
                    "destination": [ "obj-10", 0 ],
                    "source": [ "obj-12", 0 ]
                }
            },
            {
                "patchline": {
                    "destination": [ "obj-14", 0 ],
                    "source": [ "obj-13", 0 ]
                }
            },
            {
                "patchline": {
                    "destination": [ "obj-15", 0 ],
                    "source": [ "obj-14", 0 ]
                }
            },
            {
                "patchline": {
                    "destination": [ "obj-16", 0 ],
                    "source": [ "obj-15", 0 ]
                }
            },
            {
                "patchline": {
                    "destination": [ "obj-17", 0 ],
                    "source": [ "obj-16", 0 ]
                }
            },
            {
                "patchline": {
                    "destination": [ "obj-18", 0 ],
                    "source": [ "obj-17", 0 ]
                }
            },
            {
                "patchline": {
                    "destination": [ "obj-20", 0 ],
                    "source": [ "obj-19", 0 ]
                }
            },
            {
                "patchline": {
                    "destination": [ "obj-7", 0 ],
                    "source": [ "obj-2", 0 ]
                }
            },
            {
                "patchline": {
                    "destination": [ "obj-11", 0 ],
                    "source": [ "obj-20", 0 ]
                }
            },
            {
                "patchline": {
                    "destination": [ "obj-22", 0 ],
                    "hidden": 1,
                    "source": [ "obj-21", 0 ]
                }
            },
            {
                "patchline": {
                    "destination": [ "obj-23", 0 ],
                    "hidden": 1,
                    "source": [ "obj-21", 1 ]
                }
            },
            {
                "patchline": {
                    "destination": [ "obj-24", 0 ],
                    "hidden": 1,
                    "source": [ "obj-21", 2 ]
                }
            },
            {
                "patchline": {
                    "destination": [ "obj-25", 0 ],
                    "hidden": 1,
                    "source": [ "obj-21", 3 ]
                }
            },
            {
                "patchline": {
                    "destination": [ "obj-26", 0 ],
                    "hidden": 1,
                    "source": [ "obj-21", 9 ]
                }
            },
            {
                "patchline": {
                    "destination": [ "obj-27", 0 ],
                    "hidden": 1,
                    "source": [ "obj-21", 8 ]
                }
            },
            {
                "patchline": {
                    "destination": [ "obj-28", 0 ],
                    "hidden": 1,
                    "source": [ "obj-21", 7 ]
                }
            },
            {
                "patchline": {
                    "destination": [ "obj-1", 0 ],
                    "hidden": 1,
                    "midpoints": [ 342.5, 222.5, 179.5, 222.5 ],
                    "source": [ "obj-22", 0 ]
                }
            },
            {
                "patchline": {
                    "destination": [ "obj-1", 0 ],
                    "hidden": 1,
                    "midpoints": [ 388.5, 236.5, 179.5, 236.5 ],
                    "source": [ "obj-23", 0 ]
                }
            },
            {
                "patchline": {
                    "destination": [ "obj-1", 0 ],
                    "hidden": 1,
                    "midpoints": [ 433.5, 263.0, 322.8888888888889, 263.0, 322.8888888888889, 239.0, 179.5, 239.0 ],
                    "source": [ "obj-24", 0 ]
                }
            },
            {
                "patchline": {
                    "destination": [ "obj-1", 0 ],
                    "hidden": 1,
                    "midpoints": [ 540.5, 292.0, 345.8333333333333, 292.0, 345.8333333333333, 239.0, 179.5, 239.0 ],
                    "source": [ "obj-25", 0 ]
                }
            },
            {
                "patchline": {
                    "destination": [ "obj-1", 0 ],
                    "hidden": 1,
                    "midpoints": [ 755.5, 263.0, 483.5, 263.0, 483.5, 239.0, 179.5, 239.0 ],
                    "source": [ "obj-26", 0 ]
                }
            },
            {
                "patchline": {
                    "destination": [ "obj-1", 0 ],
                    "hidden": 1,
                    "midpoints": [ 709.5, 236.5, 179.5, 236.5 ],
                    "source": [ "obj-27", 0 ]
                }
            },
            {
                "patchline": {
                    "destination": [ "obj-1", 0 ],
                    "hidden": 1,
                    "midpoints": [ 663.5, 229.59765625, 179.5, 229.59765625 ],
                    "source": [ "obj-28", 0 ]
                }
            },
            {
                "patchline": {
                    "destination": [ "obj-40", 1 ],
                    "source": [ "obj-29", 0 ]
                }
            },
            {
                "patchline": {
                    "destination": [ "obj-53", 1 ],
                    "source": [ "obj-29", 1 ]
                }
            },
            {
                "patchline": {
                    "destination": [ "obj-1", 0 ],
                    "source": [ "obj-30", 0 ]
                }
            },
            {
                "patchline": {
                    "destination": [ "obj-1", 0 ],
                    "source": [ "obj-31", 0 ]
                }
            },
            {
                "patchline": {
                    "destination": [ "obj-9", 1 ],
                    "source": [ "obj-32", 1 ]
                }
            },
            {
                "patchline": {
                    "destination": [ "obj-9", 0 ],
                    "source": [ "obj-32", 0 ]
                }
            },
            {
                "patchline": {
                    "destination": [ "obj-35", 0 ],
                    "midpoints": [ 473.25, 429.0, 336.5, 429.0 ],
                    "source": [ "obj-34", 0 ]
                }
            },
            {
                "patchline": {
                    "destination": [ "obj-41", 0 ],
                    "midpoints": [ 502.75, 489.0, 366.5, 489.0 ],
                    "source": [ "obj-34", 1 ]
                }
            },
            {
                "patchline": {
                    "destination": [ "obj-42", 0 ],
                    "midpoints": [ 561.75, 489.0, 622.5, 489.0 ],
                    "source": [ "obj-34", 3 ]
                }
            },
            {
                "patchline": {
                    "destination": [ "obj-43", 0 ],
                    "midpoints": [ 532.25, 429.0, 593.5, 429.0 ],
                    "source": [ "obj-34", 2 ]
                }
            },
            {
                "patchline": {
                    "destination": [ "obj-1", 0 ],
                    "source": [ "obj-36", 0 ]
                }
            },
            {
                "patchline": {
                    "destination": [ "obj-1", 0 ],
                    "source": [ "obj-37", 0 ]
                }
            },
            {
                "patchline": {
                    "destination": [ "obj-44", 0 ],
                    "midpoints": [ 692.0, 489.0, 622.5, 489.0 ],
                    "source": [ "obj-48", 3 ]
                }
            },
            {
                "patchline": {
                    "destination": [ "obj-45", 0 ],
                    "midpoints": [ 662.5, 429.0, 593.5, 429.0 ],
                    "source": [ "obj-48", 2 ]
                }
            },
            {
                "patchline": {
                    "destination": [ "obj-46", 0 ],
                    "midpoints": [ 633.0, 489.0, 366.5, 489.0 ],
                    "source": [ "obj-48", 1 ]
                }
            },
            {
                "patchline": {
                    "destination": [ "obj-47", 0 ],
                    "midpoints": [ 603.5, 429.0, 336.5, 429.0 ],
                    "source": [ "obj-48", 0 ]
                }
            },
            {
                "patchline": {
                    "destination": [ "obj-1", 0 ],
                    "midpoints": [ 18.5, 232.0, 179.5, 232.0 ],
                    "source": [ "obj-50", 0 ]
                }
            },
            {
                "patchline": {
                    "destination": [ "obj-1", 0 ],
                    "midpoints": [ 18.5, 247.5, 179.5, 247.5 ],
                    "source": [ "obj-51", 0 ]
                }
            },
            {
                "patchline": {
                    "destination": [ "obj-1", 0 ],
                    "midpoints": [ 18.5, 217.0, 179.5, 217.0 ],
                    "source": [ "obj-52", 0 ]
                }
            },
            {
                "patchline": {
                    "destination": [ "obj-8", 1 ],
                    "source": [ "obj-54", 0 ]
                }
            },
            {
                "patchline": {
                    "destination": [ "obj-1", 0 ],
                    "midpoints": [ 18.5, 229.5, 179.5, 229.5 ],
                    "source": [ "obj-56", 0 ]
                }
            },
            {
                "patchline": {
                    "destination": [ "obj-1", 0 ],
                    "source": [ "obj-57", 0 ]
                }
            },
            {
                "patchline": {
                    "destination": [ "obj-37", 0 ],
                    "source": [ "obj-58", 0 ]
                }
            },
            {
                "patchline": {
                    "destination": [ "obj-59", 0 ],
                    "source": [ "obj-63", 3 ]
                }
            },
            {
                "patchline": {
                    "destination": [ "obj-60", 0 ],
                    "source": [ "obj-63", 2 ]
                }
            },
            {
                "patchline": {
                    "destination": [ "obj-61", 0 ],
                    "source": [ "obj-63", 1 ]
                }
            },
            {
                "patchline": {
                    "destination": [ "obj-62", 0 ],
                    "source": [ "obj-63", 0 ]
                }
            },
            {
                "patchline": {
                    "destination": [ "obj-1", 0 ],
                    "source": [ "obj-68", 0 ]
                }
            },
            {
                "patchline": {
                    "destination": [ "obj-8", 0 ],
                    "source": [ "obj-7", 0 ]
                }
            },
            {
                "patchline": {
                    "destination": [ "obj-10", 1 ],
                    "source": [ "obj-70", 0 ]
                }
            },
            {
                "patchline": {
                    "destination": [ "obj-9", 1 ],
                    "source": [ "obj-8", 1 ]
                }
            },
            {
                "patchline": {
                    "destination": [ "obj-9", 0 ],
                    "source": [ "obj-8", 0 ]
                }
            },
            {
                "patchline": {
                    "destination": [ "obj-37", 0 ],
                    "source": [ "obj-9", 0 ]
                }
            }
        ],
        "parameters": {
            "obj-17": [ "mc.live.gain~", "mc.live.gain~", 0 ],
            "parameterbanks": {
                "0": {
                    "index": 0,
                    "name": "",
                    "parameters": [ "-", "-", "-", "-", "-", "-", "-", "-" ],
                    "buttons": [ "-", "-", "-", "-", "-", "-", "-", "-" ]
                }
            },
            "inherited_shortname": 1
        },
        "autosave": 0
    }
}